<?xml version="1.0" encoding="utf-8"?>
<!-- Generator: Adobe Illustrator 22.0.1, SVG Export Plug-In . SVG Version: 6.00 Build 0)  -->
<svg version="1.1" id="Capa_1" xmlns="http://www.w3.org/2000/svg" xmlns:xlink="http://www.w3.org/1999/xlink" x="0px" y="0px"
	 viewBox="0 0 200 200" style="enable-background:new 0 0 200 200;" xml:space="preserve">
<style type="text/css">
	.st0{fill:#F0EFEF;}
</style>
<g>
	<path class="st0" d="M148.5,139.7l47.6-58.6l-44.4,23.4l-0.3-1.4l23.6-44.6l-25.5,11.2l0,0l-0.2-0.1l-0.7-1.6l18-42.1L141,49.7
		l-0.6-15.5l-0.1-0.8l-1-3.5l6.6-28.7L134,12.2l-1.9-6.6l0,0l0,0L132,5.3L131.9,5l-0.1-0.2L131.6,4l-0.5,0.5l-0.3,0.3L130.5,5
		l-0.1,0.1l0,0l0,0l-13.6,13.3l-12.2,12l-1.5-0.1l-3-24.9l-2.7,24.9l-1.8,0.1L83.4,18.6l0-0.1l-0.1,0L68.5,4.1l-2.4,8.3l-11.9-11
		l6.6,28.9l-1,3.7l-0.6,15.9l-25.7-24l18.1,42.3l0.4,1l-0.5,0.8l1.1,0.5l7.2-3.4l0.2-0.1l1.5,1.8l4.6,16.7l0,0l0,0l0,0l-4.8,4.7
		l-2.4-5.4l-2.7-6.1l-0.1-0.3l-3.6-8l-1.7-0.7L25.1,58.4l23.7,44.9l1.1,2l0.8-3.5l6.8,11.9l6.1,10.6l0.2,0.6l-7.6,16.3l-1,2.2
		l-9.6-20.1l4.3-17.9l-1.1-2l-0.5,1.2L3.9,81.1L52,140.2l2.3,4.9l0.1,0.2l9.8,20.5l0.1,0.2l13.8,6.8l0.2,0.1l0,0l21.1,26.2l0.2,0.2
		l0.3,0.4l0.3,0.3l0.3-0.3l0.3-0.4l0.2-0.2l21.1-26.2l13.7-6.8l0.2-0.1l0.1-0.2l0-0.1l0.1-0.2l9.6-20.2l0.1-0.1l-0.1-0.1
		L148.5,139.7z M85.1,134.3L74,106.5l0.6-1.2l1.5,3.6l5.6,2.7l9.6,14.5l0.2,0.3l0.6,0.4l3.8,3l0.3,0.3h0.4h3h1h2.9h0.4l0.3-0.2
		l3.9-3l0.4-0.3l0.3-0.4l9.7-14.6l5.3-2.4l0.3-0.3l1.5-3.6l0.6,1.2l-11.1,27.8l-14.9,14.5l-15-14.4l0-0.1L85.1,134.3z M83.7,135.1
		l-0.8,17.4l-9-7.3l0-0.2l-0.1,0l-8.3-20l7.8-16.6l10.6,26.5L83.7,135.1L83.7,135.1z M78.7,59.3L82,69.9l-2-0.5l-1.9,0.9l-3.5-2.8
		L78.7,59.3z M73.3,66.9l-10.5-1.3l14.4-6.7L73.3,66.9z M144,78.7l-5.1,11.5l-4.8-4.7l0,0l0,0l0,0l4.6-16.7l1.5-1.8l7.5,3.5l-3.6,8
		L144,78.7z M122.9,108l-4.5,2l-4.2-10.2l17.4-12.1L122.9,108z M100.9,68.9l2.3-4.2l7.3,9.7l-0.9,6.5l-8.7-4.3v-7.5L101,69
		L100.9,68.9z M107,67.2l13-8.2l-3.6,11.4l-2.3,0.6l-2.6,2.1L107,67.2z M132,85.5l-18.5,12.8L110,90l0.3-3.7l17.2-5.2L132,85.5z
		 M128.7,80.2l7.7-8.9l-3.6,12.9L128.7,80.2z M109.2,82.3l-2.5,30.3l-5.8-1.3v-33L109.2,82.3z M106.1,114l-6,8.3l-6-8.3l6-1.4
		L106.1,114z M99.3,111.3l-5.8,1.3L91,82.3l8.3-4.1V111.3z M92.4,114.2l6.6,9l-6.4,1.9L83,110.9l7.4-17.7L92.4,114.2z M100.1,124.4
		l6.3,1.9l-3,2.3h-2.7h-1h-2.8l-2.9-2.3L100.1,124.4z M101.3,123.2l6.9-9.7l1.7-20.3l7.4,17.7l-9.5,14.3L101.3,123.2z M133.5,86.9
		l4.6,4.5l-10.5,9.3L133.5,86.9z M127.3,79.6l-16.8,5.1l0.2-2.6l8.9-4.4l2.4-5.3l4.8-3.8l11.4-1.4L127.3,79.6z M126.9,66.9l-4-8.1
		l14.4,6.7L126.9,66.9z M125.5,67.5l-3.5,2.8l-1.9-0.9l-2,0.5l3.3-10.7L125.5,67.5z M121.2,56.3l-9.8-6.7l8.8-16.3l11.4,7.8
		L121.2,56.3z M120,57.3L106.1,66l-2.1-2.8l6.6-12.3L120,57.3z M100.1,67.3l-9.4-17.5l9.5-17.1l9.4,17L100.1,67.3z M96.2,63.2
		L94.1,66l-13.9-8.7l9.4-6.4L96.2,63.2z M79,56.3L68.6,41.1L80,33.3l8.8,16.3L79,56.3z M80.1,59l13,8.2l-4.5,6L86,71.1l-2.3-0.6
		L80.1,59z M97,64.6l2.3,4.2L99.2,69l0.1,0.1v7.5l-8.7,4.3l-0.9-6.5L97,64.6z M90.1,90l-3.5,8.4L68.1,85.5l4.5-4.5l17.2,5.2L90.1,90
		z M86.1,99.8L81.8,110l-4.5-2l-2-4.6l-6.7-15.6L86.1,99.8z M116.5,134.9l10.6-26.5l7.8,16.6l-8.3,20l-0.1,0l0,0.2l-9.1,7.4
		l-0.8-17.4L116.5,134.9L116.5,134.9z M126.5,103.7l13-11.5l5.1-11.1l4.5,18.7l-13.4,23.5L126.5,103.7z M139.5,51.1l0.1,0l7.5,17.5
		L122.5,57l10.2-14.8l6.9,8.7L139.5,51.1z M138.6,33.8l-5.5,5.5l-2.1-17L138.6,33.8z M133.6,41l5.3-5.3l0.5,12.7L133.6,41z
		 M131.6,9.3l5.9,20.1L130.7,19L131.6,9.3z M131.6,39.4L120.9,32l8.5-10.9L131.6,39.4z M130.3,7.3l-1.1,11.5l-0.1,0l0,0.2l-8.8,11.4
		l-2-11.3L130.3,7.3z M117,20.3l1.9,11.1l-12.4-0.8L117,20.3z M118.7,32.9l-8.3,15.4l-9.1-16.5L118.7,32.9z M99,31.7l-9.2,16.5
		l-8.3-15.4L99,31.7z M93.6,30.6l-12.4,0.8l1.9-11.1L93.6,30.6z M81.8,19.1l-2,11.3L71,19l0-0.2l-0.1,0L69.9,7.3L81.8,19.1z
		 M70.8,21.1L79.2,32l-10.7,7.3L70.8,21.1z M68.6,9.3l0.9,9.8l-6.8,10.3L68.6,9.3z M69.1,22.3l-2.1,17l-5.5-5.5L69.1,22.3z
		 M61.3,35.7l5.3,5.3l-5.9,7.4L61.3,35.7z M53,68.6l7.5-17.5l0.1,0l0-0.2l6.9-8.7L77.7,57L53,68.6z M62.6,67.7L62,67l11.4,1.4
		l4.8,3.8l2.4,5.3l8.9,4.4l0.2,2.6l-16.8-5.1L62.9,68L62.6,67.7z M63.8,71.3l7.7,8.9l-4.1,4.1L63.8,71.3z M66.7,86.9l5.9,13.8
		l-10.5-9.3L66.7,86.9z M57.6,111l-6.4-11.3l4.5-18.7l3.1,7l1.6,3.6l0.1,0.3l13.3,11.7l-1.2,2.6l-7.9,16.9L57.6,111z M55.9,145.1
		l8.6-18.3l7.8,18.8l-7.6,18.1L55.9,145.1z M65.8,165.1l7.2-17.1l4.7,23L65.8,165.1z M99.3,196.8l-20-24.7l0,0l0-0.2l-5-24.4
		l8.5,6.9l0,0l0,0l16.6,13.4V196.8z M100.1,166.5l-15.8-12.8l0.8-17.2l14.5,13.9l0.6,0.6l14.9-14.5l0.8,17.2L100.1,166.5z
		 M120.8,172l-20,24.7v-29l16.3-13.3l0.2,0l0-0.2l8.5-6.9L120.8,172z M122.5,171l4.7-23l7.2,17.1L122.5,171z M135.4,163.6l-7.6-18.1
		l7.8-18.8l8.6,18.3L135.4,163.6z M145.1,143.3l-8.6-18.4l0.2-0.5l12.9-22.5l5.1,21.4L145.1,143.3z"/>
</g>
</svg>
